<?xml version="1.0" encoding="utf-8"?>
<!-- Generator: Adobe Illustrator 16.0.0, SVG Export Plug-In . SVG Version: 6.00 Build 0)  -->
<!DOCTYPE svg PUBLIC "-//W3C//DTD SVG 1.1//EN" "http://www.w3.org/Graphics/SVG/1.1/DTD/svg11.dtd">
<svg version="1.1" id="Layer_1" xmlns="http://www.w3.org/2000/svg" xmlns:xlink="http://www.w3.org/1999/xlink" x="0px" y="0px"
	 width="106px" height="114.5px" viewBox="0 0 106 114.5" enable-background="new 0 0 106 114.5" xml:space="preserve">
<g>
	<path fill="#FFFFFF" d="M94.064,52.583c4.763,2.75,4.763,7.25,0,10l-28.94,16.708c-4.763,2.75-12.557,7.25-17.32,10L18.864,106
		c-4.763,2.75-8.66,0.5-8.66-5V67.583c0-5.5,0-14.5,0-20V14.167c0-5.5,3.897-7.75,8.66-5l28.94,16.708
		c4.763,2.75,12.557,7.25,17.32,10L94.064,52.583z"/>
	<path fill="none" stroke="#000000" stroke-miterlimit="10" d="M94.064,52.583c4.763,2.75,4.763,7.25,0,10l-28.94,16.708
		c-4.763,2.75-12.557,7.25-17.32,10L18.864,106c-4.763,2.75-8.66,0.5-8.66-5V67.583c0-5.5,0-14.5,0-20V14.167
		c0-5.5,3.897-7.75,8.66-5l28.94,16.708c4.763,2.75,12.557,7.25,17.32,10L94.064,52.583z"/>
</g>
</svg>
